<?xml version="1.0" standalone="no"?>
<!DOCTYPE svg PUBLIC "-//W3C//DTD SVG 20010904//EN"
 "http://www.w3.org/TR/2001/REC-SVG-20010904/DTD/svg10.dtd">
<svg version="1.0" xmlns="http://www.w3.org/2000/svg"
 width="640.000000pt" height="640.000000pt" viewBox="0 0 640.000000 640.000000"
 preserveAspectRatio="xMidYMid meet">
<metadata>
Created by potrace 1.11, written by Peter Selinger 2001-2013
</metadata>
<g transform="translate(0.000000,640.000000) scale(0.100000,-0.100000)"
fill="#000000" stroke="none">
<path d="M0 3736 c0 -2602 0 -2665 19 -2671 10 -3 95 -1 187 5 93 5 263 10
379 10 116 0 264 5 330 10 116 10 413 24 756 37 159 5 167 5 177 -14 6 -11 8
-29 5 -41 -4 -16 2 -26 26 -40 l31 -19 -38 -24 c-32 -22 -37 -29 -34 -59 4
-48 68 -177 98 -196 32 -21 30 -28 -11 -53 -19 -11 -35 -28 -35 -38 -1 -21
-34 -47 -73 -57 -16 -4 -33 -17 -39 -32 -8 -18 -40 -40 -101 -70 -100 -51
-164 -105 -212 -179 -51 -80 -52 -107 -13 -262 l11 -43 1639 0 1639 0 -17 31
c-30 59 -53 169 -35 169 4 0 16 -24 26 -52 26 -74 83 -148 113 -148 27 0 22
13 -20 48 -15 13 -28 29 -28 36 0 16 93 71 153 92 26 9 44 20 41 25 -6 11 -31
12 -36 1 -5 -12 -118 -51 -118 -40 0 5 -9 6 -20 3 -11 -3 -20 -4 -20 -2 0 8
36 44 68 66 23 16 31 28 27 41 -5 14 4 22 40 35 25 10 44 20 41 22 -5 6 -80
-20 -124 -42 -18 -9 -40 -14 -49 -11 -12 5 -14 1 -10 -14 3 -11 2 -20 -3 -20
-4 0 -10 10 -13 22 -7 24 9 49 27 47 6 -1 22 2 36 8 14 6 42 16 63 24 21 7 44
20 50 28 9 10 3 9 -22 -3 -22 -12 -45 -16 -65 -12 -20 4 -26 3 -17 -3 11 -7
10 -11 -5 -19 -29 -14 -45 -4 -38 24 3 13 2 24 -4 24 -5 0 -12 -9 -15 -20 -6
-23 -49 -45 -71 -37 -9 4 -16 17 -16 29 0 22 -29 136 -46 183 -7 20 -7 20 15
1 16 -15 24 -17 33 -8 7 7 19 12 27 12 8 0 23 7 33 16 16 16 18 15 26 -7 10
-26 -12 -68 -36 -69 -6 0 -21 -9 -31 -19 -23 -23 -18 -55 11 -75 16 -12 18
-18 9 -35 -7 -12 -9 -21 -6 -21 12 0 35 29 35 43 0 14 36 55 73 84 19 15 31
17 23 4 -3 -5 17 -12 46 -16 48 -7 51 -8 32 -22 -12 -9 -36 -13 -67 -11 -26 2
-47 0 -47 -4 0 -5 14 -8 31 -8 28 0 30 -2 18 -17 -12 -14 63 23 97 49 6 4 13
6 16 3 3 -3 10 0 16 7 8 10 0 12 -39 10 -31 -3 -49 0 -49 7 0 6 5 11 12 11 9
0 8 3 -1 12 -11 10 -14 10 -18 1 -3 -7 -12 -13 -21 -13 -14 0 -14 2 -3 9 11 7
11 9 0 13 -10 3 -10 6 -1 12 7 4 12 2 12 -4 0 -6 4 -9 9 -6 16 10 110 -17 127
-36 16 -16 15 -19 -7 -38 -22 -19 -22 -20 -2 -11 16 8 22 7 27 -5 5 -13 -2
-15 -36 -12 -26 2 -43 -1 -45 -9 -5 -15 28 -16 120 -4 42 5 61 4 68 -6 14 -16
4 -43 -16 -43 -18 0 -20 16 -2 23 6 3 -1 6 -16 6 -24 1 -26 -1 -18 -18 15 -27
35 -32 60 -15 24 18 26 33 7 59 -10 14 -24 18 -57 17 -25 -1 -46 3 -51 10 -14
23 -9 30 17 24 20 -5 31 0 50 20 19 20 25 23 25 11 0 -9 -6 -22 -14 -29 -12
-11 -9 -15 17 -28 18 -9 39 -30 48 -50 21 -43 12 -51 -62 -52 -37 -1 -46 -4
-33 -11 9 -5 41 -7 70 -3 46 5 55 4 64 -13 16 -30 12 -43 -12 -41 -13 1 -36 1
-53 0 -23 -1 -18 -5 25 -13 l55 -12 -1 -72 c-1 -54 -7 -82 -23 -108 -18 -32
-19 -35 -3 -35 28 0 44 39 51 120 l6 75 18 -49 c9 -27 17 -71 17 -98 0 -38 3
-48 16 -48 14 0 16 9 10 70 -7 72 -2 110 15 110 11 0 82 51 87 63 2 4 10 7 18
7 14 0 55 20 64 31 3 3 20 14 38 23 17 9 32 20 32 24 0 10 59 40 95 48 17 4
40 16 53 27 12 11 22 17 22 12 0 -5 10 1 23 12 19 18 89 45 122 48 6 0 29 14
51 30 23 17 49 35 59 40 19 12 34 95 16 95 -6 0 -11 5 -11 11 0 11 28 9 63 -6
13 -6 17 -2 17 15 0 27 37 90 53 90 17 1 48 26 51 42 2 7 6 20 9 28 3 8 11 33
18 55 6 22 21 58 31 79 16 31 19 50 13 91 -6 51 -7 53 -43 59 -20 3 -54 6 -75
6 -30 0 -40 5 -49 25 -12 27 -28 33 -28 11 0 -11 -9 -14 -37 -10 l-38 4 29
-14 29 -13 -34 -6 c-64 -10 -94 -19 -104 -31 -22 -25 -44 -17 -50 17 -4 20
-15 36 -28 42 -16 7 -23 20 -25 48 -2 24 -8 37 -18 37 -8 0 -17 13 -20 29 -5
21 -15 33 -35 40 -19 7 -29 17 -29 30 0 12 -9 30 -20 41 -13 13 -20 33 -20 58
l0 38 40 -2 c22 -1 57 4 78 11 25 9 43 10 55 3 29 -15 404 0 445 19 25 11 36
12 47 3 21 -18 55 -3 55 25 0 13 -6 26 -12 29 -10 5 -10 7 0 12 9 4 12 69 12
273 l0 268 -57 -9 c-32 -4 -131 -7 -220 -7 -145 1 -163 3 -163 17 0 15 22 17
220 17 l220 0 0 437 0 437 -22 3 c-32 5 -35 28 -4 28 l26 0 0 579 0 580 -42 3
c-23 2 -43 8 -45 14 -2 6 17 22 42 35 44 23 45 25 45 73 l0 49 -25 -23 c-23
-22 -27 -23 -42 -8 -14 15 -14 23 -3 76 11 47 19 62 42 75 24 14 28 22 28 60
l0 44 -135 -2 c-131 -3 -135 -2 -140 19 -2 11 -11 86 -20 166 -19 166 -28 194
-68 198 -15 2 -27 7 -27 12 0 18 -54 38 -78 29 -29 -11 -46 -53 -31 -81 13
-24 1 -40 -12 -15 -7 11 -22 17 -49 17 -33 0 -40 -4 -51 -29 -7 -16 -17 -27
-22 -24 -4 3 -19 2 -33 -1 -29 -8 -59 -66 -49 -96 4 -13 -2 -24 -20 -36 -25
-16 -29 -16 -61 -1 -72 35 -107 14 -103 -60 4 -60 -16 -76 -56 -45 -41 33 -92
29 -139 -10 -38 -31 -38 -32 -34 -89 l4 -59 -31 24 c-18 14 -47 27 -67 31 -29
5 -40 2 -64 -18 -26 -23 -29 -31 -29 -90 0 -51 -2 -61 -10 -46 -27 50 -99 66
-149 33 -27 -17 -66 -81 -66 -106 0 -7 9 -30 20 -51 l20 -37 -30 -27 c-34 -30
-38 -60 -12 -94 10 -13 42 -62 70 -108 29 -45 60 -94 69 -107 8 -13 13 -24 11
-24 -3 0 -36 29 -74 65 -38 36 -125 99 -196 141 l-126 77 5 36 c9 55 21 81 38
81 8 0 15 5 15 11 0 6 -9 9 -19 6 -15 -4 -20 2 -24 30 -4 19 -18 46 -32 59
-25 23 -26 28 -20 87 4 34 11 66 16 71 4 5 46 11 91 14 46 2 91 9 101 14 18 9
18 10 1 23 -18 13 -34 101 -38 203 -1 40 -8 52 -20 34 -3 -5 -10 -40 -16 -78
-14 -87 -33 -108 -99 -110 -27 -1 -55 -5 -61 -9 -6 -4 -17 -2 -24 5 -11 8 -15
8 -18 -2 -3 -7 -7 -3 -10 10 -4 15 -2 22 9 22 8 0 13 6 10 13 -2 6 -11 10 -18
8 -32 -11 -112 -6 -116 6 -3 7 -13 13 -22 13 -21 0 -42 60 -37 103 4 34 -22
51 -63 42 l-29 -6 -11 103 c-6 57 -19 139 -27 182 l-16 79 31 29 c17 16 38 40
46 52 15 22 23 23 198 29 166 6 417 32 542 57 311 62 311 62 640 59 223 -3
316 0 331 8 16 9 30 9 64 -3 55 -19 106 -20 155 -4 25 8 70 11 127 8 l88 -5 0
103 c0 94 -2 103 -20 109 -11 4 -28 19 -37 33 -9 15 -23 32 -30 38 -10 9 -9
16 8 35 l21 24 -30 12 c-17 7 -33 17 -37 23 -3 5 -15 10 -25 10 -21 0 -29 10
-35 39 -5 27 11 37 75 45 61 8 90 24 68 37 -10 7 -10 9 1 9 36 0 40 30 41 253
l0 217 -370 0 -370 0 0 -31 c0 -25 -3 -29 -13 -20 -8 6 -17 8 -20 4 -16 -15
-5 -46 25 -73 l32 -30 23 22 c13 12 23 28 23 36 0 10 8 7 25 -9 25 -24 36 -89
15 -89 -6 0 -15 -12 -21 -27 -7 -19 -13 -23 -21 -15 -8 8 -15 7 -25 -3 -7 -8
-21 -11 -31 -8 -11 4 -8 -2 8 -16 14 -13 24 -31 22 -42 -3 -15 3 -19 25 -19
24 0 29 -4 28 -25 0 -13 -6 -30 -12 -37 -7 -6 -13 -16 -13 -21 0 -6 -7 -15
-15 -21 -13 -9 -14 -19 -6 -51 5 -22 9 -32 10 -22 1 9 5 17 10 17 4 0 6 -12 3
-27 -5 -31 -39 -73 -58 -73 -8 0 -11 -6 -8 -15 11 -28 -25 -27 -98 1 -84 32
-83 32 -75 40 4 4 13 1 21 -5 12 -10 19 -10 35 1 19 14 19 15 -13 32 -27 15
-33 23 -32 50 1 19 6 40 12 47 18 24 15 59 -6 59 -10 0 -21 4 -24 9 -9 14 4
41 20 41 8 0 14 9 14 20 0 10 9 24 19 30 16 8 21 6 26 -9 8 -27 39 -38 32 -11
-3 11 -1 20 5 20 5 0 8 10 6 21 -2 17 -15 25 -53 35 -27 7 -51 13 -53 14 -2 0
0 -4 3 -10 3 -5 4 -10 1 -10 -12 0 -39 66 -38 92 1 32 -16 47 -29 27 -7 -10
-8 -6 -4 12 6 22 3 26 -17 25 -20 -1 -23 3 -20 33 3 24 0 32 -10 29 -7 -3 -12
-16 -10 -29 1 -13 -4 -28 -12 -34 -7 -6 -15 -19 -17 -30 -4 -16 -14 -20 -55
-23 -35 -1 -55 2 -63 12 -8 10 -9 16 -1 21 5 3 10 15 10 25 0 14 8 20 32 22
22 2 34 9 36 21 3 16 -14 17 -252 17 -193 0 -256 -3 -256 -12 0 -9 -3 -9 -12
0 -9 9 -131 12 -489 12 l-477 0 -31 -26 c-18 -14 -36 -35 -42 -45 -7 -15 5
-11 56 17 36 20 72 34 79 31 21 -8 36 -94 46 -268 5 -85 16 -176 24 -204 8
-27 13 -51 10 -54 -7 -7 -116 51 -131 69 -7 8 -11 19 -9 25 1 5 -11 20 -27 34
-16 13 -47 48 -68 78 -26 35 -47 53 -61 53 -19 0 -20 -4 -14 -52 9 -63 39
-127 78 -165 33 -32 37 -23 7 18 -11 16 -19 35 -16 42 3 7 -4 24 -14 38 -10
13 -19 29 -19 36 0 6 -6 13 -12 16 -10 3 -8 10 5 23 16 18 17 18 17 -1 0 -27
88 -160 98 -150 3 3 -5 17 -19 31 l-24 26 28 -13 c16 -7 27 -20 27 -32 0 -10
9 -30 19 -44 11 -13 17 -31 14 -39 -4 -10 0 -12 13 -8 15 6 17 4 7 -6 -10 -11
-15 -11 -28 0 -13 11 -15 9 -15 -9 0 -12 4 -20 8 -17 5 3 20 -1 35 -9 35 -18
87 -17 87 2 0 20 34 12 38 -8 2 -9 -24 -50 -56 -91 -50 -63 -72 -81 -133 -112
-107 -55 -196 -85 -208 -73 -8 8 -11 6 -11 -5 0 -13 -26 -27 -53 -28 -9 0 11
39 30 58 15 16 17 32 3 32 -16 0 -50 -33 -50 -49 0 -8 -3 -11 -6 -8 -4 4 -15
-2 -24 -13 -28 -32 -155 -48 -385 -49 -118 -1 -166 4 -225 19 -121 31 -127 32
-110 22 8 -5 53 -20 100 -33 95 -26 249 -31 460 -15 l115 8 2 -28 2 -29 -11
25 c-7 17 -12 20 -15 11 -7 -17 31 -56 46 -47 6 4 18 22 26 40 13 26 25 36 51
41 38 7 247 86 305 116 34 17 70 51 138 129 25 29 32 32 40 20 12 -17 16 -14
26 19 6 20 4 23 -9 18 -19 -8 -19 -7 -5 29 7 21 7 34 -2 51 -7 13 -10 25 -8
28 3 2 35 -3 71 -12 l66 -16 13 -46 c10 -36 13 -41 17 -23 2 13 -2 30 -9 38
-6 8 -10 16 -8 18 6 6 75 -19 103 -37 48 -32 61 -186 25 -298 -24 -74 -89
-209 -101 -209 -4 0 -8 -5 -8 -11 0 -24 -71 -94 -155 -153 -134 -94 -255 -147
-485 -216 -41 -12 -86 -26 -100 -30 -63 -21 -213 -43 -318 -46 -63 -1 -116 -5
-119 -7 -2 -3 39 -8 91 -12 168 -13 301 8 551 86 160 50 307 121 402 194 40
30 74 55 77 55 10 0 58 -332 54 -383 -1 -26 5 -44 25 -69 58 -70 125 -178 142
-230 10 -29 19 -81 20 -115 1 -58 0 -62 -15 -48 -21 19 -35 19 -56 -2 -10 -10
-29 -16 -45 -15 -19 2 -32 -3 -40 -16 -10 -16 -20 -19 -45 -15 -29 5 -35 1
-58 -33 -41 -63 -67 -179 -69 -307 -2 -129 13 -180 90 -301 24 -37 43 -69 41
-70 -20 -15 -86 -63 -95 -71 -37 -29 -134 -127 -149 -150 -9 -14 -24 -25 -34
-25 -10 0 -37 -23 -61 -51 -24 -29 -60 -58 -85 -70 -24 -10 -63 -27 -86 -38
-117 -51 -317 -89 -480 -92 -63 -1 -63 -1 -23 -11 118 -29 416 25 589 107 45
21 54 14 31 -22 -52 -81 -198 -171 -370 -228 -116 -38 -125 -40 -255 -40 -74
0 -169 6 -210 14 -191 35 -384 109 -496 192 -51 37 -134 124 -134 140 0 12 17
12 24 0 3 -4 41 -27 85 -50 74 -38 260 -96 283 -89 5 2 -33 19 -84 38 -98 36
-182 78 -286 143 -49 31 -74 56 -114 116 -73 109 -117 161 -131 155 -9 -3 -22
23 -41 78 -49 148 -102 270 -194 448 -50 96 -96 194 -103 218 -12 41 -43 63
-67 48 -5 -3 -14 6 -20 19 -9 18 -19 25 -41 25 -16 0 -33 5 -36 10 -3 6 -23
10 -44 10 -33 0 -45 -7 -88 -52 -70 -75 -108 -135 -151 -235 l-37 -88 -3 95
c-6 192 57 362 153 414 18 10 36 28 39 40 4 11 11 89 16 171 6 83 19 188 29
235 25 116 71 261 89 283 13 15 10 21 -9 19 -11 -2 -196 67 -264 98 -203 91
-320 157 -462 261 -55 41 -87 94 -154 254 -30 73 -33 89 -33 185 -1 64 4 117
12 135 18 42 57 67 101 67 43 -1 177 -37 301 -82 47 -17 105 -38 130 -46 56
-20 317 -145 369 -178 35 -22 40 -30 46 -78 20 -152 97 -337 197 -469 60 -80
181 -195 307 -292 175 -136 397 -220 686 -262 61 -8 125 -18 143 -21 40 -8 43
11 3 19 -19 4 -50 30 -92 77 -37 40 -71 70 -83 70 -17 0 -18 -5 -13 -60 4 -33
5 -60 3 -60 -31 0 -276 83 -355 121 -104 49 -128 68 -59 47 21 -6 51 -8 74 -3
l39 8 -35 9 c-19 6 -61 19 -93 30 -34 11 -69 17 -85 14 -69 -15 -295 190 -426
386 -75 113 -155 285 -156 335 0 22 1 22 56 -8 54 -28 104 -38 104 -20 0 5
-13 11 -29 14 -16 4 -32 14 -35 24 -3 10 -20 24 -38 31 -17 6 -29 14 -27 17 5
5 45 -5 83 -21 14 -5 17 -4 12 4 -5 8 3 12 26 13 l33 0 -35 13 c-19 8 -64 22
-99 33 -47 14 -65 24 -68 39 -1 10 -6 38 -9 62 l-7 42 87 1 c135 2 141 3 159
21 9 9 33 26 53 38 31 20 40 21 73 11 53 -15 60 -14 31 9 l-25 20 35 0 c19 0
45 3 58 6 18 5 24 2 29 -15 6 -25 16 -27 37 -6 17 18 30 20 20 4 -9 -16 83 -6
99 10 8 8 -4 11 -46 11 -31 0 -57 2 -57 4 0 3 24 55 53 115 l53 111 -1158 0
-1158 0 0 -2664z m4761 2622 c2 -16 -2 -42 -6 -46 -5 -6 -65 28 -65 37 0 13 7
17 40 19 18 1 30 -3 31 -10z m137 -106 c4 -11 7 -11 12 -1 5 6 14 9 22 6 16
-6 13 -66 -3 -68 -20 -3 -24 -5 -36 -12 -9 -6 -13 -2 -13 12 0 12 -4 21 -10
21 -5 0 -10 -6 -10 -12 0 -7 -6 -3 -14 8 -12 17 -14 38 -7 61 3 9 54 -4 59
-15z m7 -159 c-7 -19 -35 -4 -35 19 0 10 5 16 10 13 6 -3 10 4 11 17 1 20 2
19 10 -7 5 -16 7 -36 4 -42z m295 57 c0 -5 -7 -7 -15 -4 -8 4 -15 8 -15 10 0
2 7 4 15 4 8 0 15 -4 15 -10z m545 -50 c3 -5 1 -10 -4 -10 -6 0 -11 5 -11 10
0 6 2 10 4 10 3 0 8 -4 11 -10z m-535 -80 c0 -11 -7 -20 -15 -20 -18 0 -19 12
-3 28 16 16 18 15 18 -8z m-455 -60 c3 -5 -3 -10 -15 -10 -12 0 -18 5 -15 10
3 6 10 10 15 10 5 0 12 -4 15 -10z m1251 -23 c2 -38 18 -97 25 -98 5 -1 18 -1
29 -1 42 0 47 3 59 42 6 22 15 40 19 40 18 -1 27 -19 30 -60 1 -25 7 -46 12
-48 6 -2 7 -15 4 -28 -4 -15 -2 -24 6 -24 6 0 8 -4 5 -10 -3 -5 -2 -10 3 -10
15 0 22 -41 11 -62 -8 -15 -20 -18 -65 -17 l-55 2 6 52 7 52 -56 6 c-30 3 -60
8 -66 12 -14 9 -13 148 2 163 12 12 22 8 24 -11z m-1121 -57 c88 -6 187 -15
220 -21 57 -10 61 -13 83 -55 12 -24 22 -59 22 -78 0 -78 -153 -243 -284 -306
-47 -22 -90 -32 -186 -44 -324 -39 -430 -50 -435 -44 -4 4 0 17 8 30 34 53 61
171 61 273 1 114 -10 144 -71 193 l-37 30 54 10 c30 6 69 13 85 15 64 8 327 6
480 -3z m875 -134 c0 -2 -7 -6 -15 -10 -8 -3 -15 -1 -15 4 0 6 7 10 15 10 8 0
15 -2 15 -4z m108 -206 c-3 -38 -7 -46 -29 -54 -39 -13 -78 0 -90 32 -6 14
-16 30 -22 34 -8 5 -6 8 6 9 26 2 29 3 65 18 17 7 32 17 32 22 0 5 9 4 20 -3
17 -11 20 -22 18 -58z m154 -658 c17 -27 18 -36 8 -42 -20 -12 -33 -3 -63 47
-35 57 -29 88 9 52 14 -13 35 -39 46 -57z m-3181 35 c9 -17 27 -38 40 -44 l24
-13 -26 0 c-34 0 -99 68 -78 81 20 13 23 12 40 -24z m3065 -79 c43 -31 54 -51
34 -63 -5 -3 -23 1 -40 10 -24 12 -31 13 -34 3 -15 -50 -15 -50 -51 -44 -35 7
-35 6 -35 -28 0 -66 -33 -56 -46 13 -9 46 6 66 47 66 28 1 35 5 37 25 4 28 19
50 34 50 5 0 30 -14 54 -32z m68 -14 c3 -8 2 -12 -4 -9 -6 3 -10 10 -10 16 0
14 7 11 14 -7z m116 -349 c11 -132 24 -278 30 -325 5 -47 14 -132 19 -190 6
-58 17 -175 26 -260 27 -277 47 -483 55 -570 6 -65 5 -90 -5 -105 -23 -34
-156 -167 -245 -244 -122 -107 -189 -169 -206 -196 -17 -26 -19 -13 43 -220
26 -85 63 -221 63 -230 0 -13 -108 -3 -210 21 -147 33 -180 30 -202 -16 -16
-34 -69 -229 -82 -303 -8 -45 -21 -46 -84 -10 -84 47 -116 62 -175 82 -58 20
-58 20 -78 0 -20 -20 -70 -122 -84 -174 l-9 -30 -4 29 c-2 16 1 33 7 39 6 6
11 17 11 25 0 18 77 179 90 187 18 11 10 25 -15 25 -28 0 -31 8 -12 34 12 17
17 16 87 -17 117 -54 148 -63 162 -49 9 9 15 66 18 180 l5 167 164 3 c108 2
169 7 179 14 21 18 10 61 -42 175 -25 55 -46 105 -46 111 0 5 35 50 79 99 92
105 105 126 92 151 -5 9 -83 128 -173 263 -89 135 -167 253 -173 262 -40 64
-426 630 -452 662 -5 6 -17 23 -27 39 -18 29 -18 29 5 47 31 24 46 24 59 -1 6
-11 18 -20 28 -20 25 0 79 60 103 114 18 41 24 47 42 41 12 -4 45 -10 74 -12
46 -4 55 -2 79 22 22 22 25 33 22 71 -3 43 13 62 25 30 3 -8 18 -22 32 -32 21
-14 30 -15 52 -5 23 11 25 16 19 51 -3 22 -5 40 -3 40 2 0 18 -7 35 -16 24
-11 36 -13 52 -4 30 16 27 65 -5 86 -25 17 -25 34 1 34 8 0 14 -6 14 -14 0 -8
8 -24 18 -36 25 -31 62 -20 62 19 0 42 31 66 69 53 35 -13 76 10 68 38 -3 13
2 18 21 18 34 0 55 28 40 56 -9 17 -8 19 3 9 29 -28 89 -2 89 39 0 15 5 17 25
12 30 -7 55 10 55 38 0 16 5 19 23 15 12 -4 29 -2 37 3 19 12 24 -15 50 -325z
m-449 197 c52 -34 73 -57 64 -72 -8 -14 -38 -13 -53 2 -9 9 -18 6 -38 -13 -14
-13 -30 -35 -35 -48 -13 -32 -28 -17 -40 40 -5 24 -12 52 -15 61 -6 20 29 58
54 58 10 0 38 -13 63 -28z m87 -10 c2 -7 -2 -10 -12 -6 -9 3 -16 11 -16 16 0
13 23 5 28 -10z m-298 -67 c7 -9 10 -27 6 -45 -4 -24 -2 -30 12 -30 21 0 42
-19 42 -37 0 -17 -35 -17 -63 2 -30 19 -53 5 -38 -23 15 -28 14 -52 -2 -52
-38 0 -86 115 -65 154 24 45 83 62 108 31z m-207 -155 c35 -28 41 -54 21 -85
-19 -29 -58 -33 -88 -10 -27 20 -27 82 -1 101 25 19 38 18 68 -6z m-189 -96
c23 -22 20 -76 -7 -115 -33 -50 -50 -48 -86 11 -17 28 -31 55 -31 61 0 5 11
21 25 34 28 29 76 33 99 9z m-3456 -52 c4 -53 32 -61 32 -8 0 52 27 55 37 4 9
-44 33 -65 33 -29 0 29 34 28 52 -1 7 -13 32 -63 53 -113 22 -49 58 -124 80
-165 67 -124 86 -177 130 -355 l43 -170 -31 -60 c-32 -65 -75 -131 -116 -181
-14 -17 -35 -42 -45 -55 -37 -46 -130 -154 -158 -183 -15 -15 -28 -32 -28 -37
0 -13 -97 -82 -195 -138 -67 -39 -92 -48 -102 -40 -10 9 -13 7 -13 -9 0 -12 5
-24 11 -27 5 -4 51 14 102 39 65 32 111 64 156 108 56 54 65 60 71 43 5 -13 9
-15 14 -6 4 6 5 19 2 27 -3 9 5 26 22 41 15 15 20 22 12 18 -20 -12 37 54 73
84 23 19 39 24 80 22 27 -1 66 4 86 10 47 15 101 51 101 67 0 17 -43 32 -92
32 -47 0 -46 4 5 82 17 28 43 78 58 111 15 37 32 62 41 62 22 0 201 -267 185
-277 -6 -4 -19 -5 -27 -3 -8 3 -27 -8 -41 -23 -44 -47 -44 -55 0 -33 30 16 39
26 35 39 -5 13 -4 14 4 3 6 -8 18 -11 30 -7 18 6 22 2 28 -30 7 -37 -1 -178
-12 -224 -5 -19 -4 -22 5 -14 13 12 44 162 35 175 -3 5 -1 9 4 9 5 0 15 -23
23 -52 8 -28 20 -53 27 -56 8 -2 10 2 5 14 -4 12 -3 15 5 10 14 -8 16 6 3 20
-5 5 -12 20 -16 34 l-7 25 28 -26 c36 -34 158 -111 202 -129 18 -7 37 -21 43
-31 5 -10 38 -34 73 -54 34 -19 74 -44 87 -56 16 -14 25 -16 28 -8 2 6 -4 16
-12 21 -9 4 -23 15 -31 23 -8 8 -18 15 -23 15 -4 0 -17 8 -28 17 l-20 16 20
-7 c11 -4 38 -9 60 -11 64 -7 99 -20 110 -42 6 -12 16 -28 23 -36 7 -9 13 -26
14 -39 0 -26 18 -70 32 -80 5 -3 11 -14 12 -24 2 -9 8 -20 15 -24 8 -6 6 -11
-9 -19 -28 -15 -32 -14 -32 9 0 43 -65 114 -125 136 -14 6 -5 -9 26 -46 25
-30 54 -71 65 -90 22 -41 53 -72 68 -67 17 6 27 59 20 107 -7 55 -48 138 -80
163 -32 24 -22 38 19 26 48 -14 192 -11 282 6 133 24 229 55 353 112 18 9 34
14 36 12 1 -2 13 -25 25 -52 25 -51 103 -123 122 -112 13 8 9 68 -12 182 l-13
71 38 46 c20 25 44 65 52 88 8 24 24 54 35 68 l21 25 -7 -25 c-11 -40 -23
-132 -23 -175 0 -34 4 -26 33 60 18 55 38 114 45 130 l13 30 7 -25 c5 -14 9
-52 10 -85 l1 -60 23 105 c12 58 30 119 39 135 16 31 70 91 120 135 l29 25 -7
-40 c-3 -22 -9 -52 -11 -67 -11 -57 16 -26 40 45 8 24 41 18 41 -8 1 -24 26
-108 35 -115 4 -3 22 -30 42 -60 85 -134 245 -298 343 -352 37 -21 74 -38 81
-38 8 0 14 -4 14 -10 0 -5 -7 -10 -16 -10 -8 0 -12 -5 -9 -11 4 -6 14 -7 24
-4 27 12 90 15 96 5 6 -10 -92 -43 -105 -35 -9 5 -100 -29 -108 -41 -4 -5 -27
-18 -52 -29 -25 -10 -52 -25 -60 -32 -12 -11 -10 -13 15 -13 42 0 102 18 119
36 16 15 74 39 81 33 2 -2 -26 -40 -61 -84 -35 -44 -67 -88 -70 -97 -10 -33
-27 -19 -21 17 4 26 2 35 -9 35 -20 0 -18 -45 7 -110 25 -67 33 -76 26 -30 -4
27 1 43 20 68 13 17 28 32 34 32 12 0 76 -135 113 -240 28 -76 52 -202 66
-345 4 -44 11 -87 14 -96 5 -11 -6 -29 -36 -59 -64 -63 -112 -93 -223 -137
-98 -40 -355 -125 -385 -128 -9 0 -20 -4 -26 -7 -36 -22 -259 -68 -399 -82
-299 -30 -594 -39 -645 -19 -8 3 -39 5 -67 3 -33 -1 -53 3 -53 10 0 7 -6 8
-18 1 -10 -5 -45 -6 -87 -1 -214 25 -262 32 -390 54 -125 22 -211 40 -435 90
-36 8 -101 24 -145 36 -44 12 -136 36 -205 54 l-125 32 1 199 c0 110 6 247 13
304 13 108 61 272 89 304 8 9 11 17 6 17 -17 0 -30 -15 -43 -47 l-13 -33 -30
21 c-16 12 -46 29 -66 39 -35 17 -35 18 -11 25 46 13 109 45 109 55 0 20 59
72 75 66 9 -3 28 5 45 22 66 60 74 63 84 36 4 -9 5 -17 4 -18 -60 -23 -111
-85 -122 -146 -5 -26 -4 -30 3 -14 5 12 44 56 85 97 91 91 98 117 33 117 -24
0 -61 -9 -83 -19 -52 -25 -136 -100 -130 -116 3 -8 -17 -18 -57 -28 -115 -29
-147 -30 -202 -2 -108 55 -125 69 -125 105 0 22 32 138 55 199 4 9 21 -17 42
-62 26 -56 42 -77 55 -77 34 0 30 29 -15 122 -62 127 -100 247 -133 413 -24
127 -26 154 -21 285 6 140 23 271 47 362 22 82 99 222 156 286 66 74 88 77 92
14z m-1502 -73 c7 -19 13 -51 13 -71 1 -21 6 -38 11 -38 6 0 10 -4 10 -9 0 -7
-39 -8 -61 -3 -26 7 -39 128 -17 150 18 18 30 10 44 -29z m4290 0 c9 -26 20
-37 46 -46 59 -19 294 -149 386 -212 228 -157 302 -270 302 -458 0 -83 -20
-170 -49 -213 -9 -14 -23 -38 -29 -54 -21 -47 -104 -158 -163 -216 -31 -31
-59 -65 -61 -76 -6 -30 -51 -21 -111 22 -122 89 -326 314 -382 423 l-17 34 34
-21 c118 -73 158 -87 158 -57 0 8 -19 24 -42 36 -81 41 -158 100 -199 152
-140 176 -184 303 -161 461 12 82 46 200 65 224 16 20 47 15 47 -8 0 -31 30
-24 41 10 12 34 34 40 42 10 7 -28 35 -25 49 5 15 33 30 27 44 -16z m-4288
-352 c7 -46 12 -113 12 -150 0 -37 5 -87 12 -112 13 -48 7 -69 -25 -89 -12 -8
-21 -5 -36 8 -20 18 -21 30 -21 191 0 170 9 235 34 235 7 0 17 -32 24 -83z
m5092 -274 c0 -7 4 -13 9 -13 5 0 12 -8 15 -18 4 -10 14 -27 24 -38 9 -10 67
-95 127 -189 60 -93 112 -172 115 -175 3 -3 13 -19 22 -36 l17 -31 -47 -2
c-26 -1 -87 -6 -137 -12 -49 -6 -117 -9 -150 -8 -33 2 -86 3 -118 3 -57 1 -65
4 -48 22 5 5 19 27 31 49 65 115 92 178 112 258 19 78 20 95 9 152 -6 35 -14
72 -17 82 -4 12 1 10 15 -7 11 -14 21 -31 21 -37z m-3146 -429 c-2 -26 -14
-47 -14 -27 0 6 -23 11 -55 12 -41 0 -57 -4 -64 -17 -5 -9 -13 -13 -17 -9 -4
4 3 18 16 32 17 18 35 25 74 28 28 2 54 4 57 5 3 1 5 -10 3 -24z m4293 -138
c-1 -19 -5 -32 -9 -29 -11 6 -10 63 1 63 5 0 9 -15 8 -34z m-2590 -38 c-3 -7
-5 -2 -5 12 0 14 2 19 5 13 2 -7 2 -19 0 -25z m1240 0 c6 -18 14 -47 18 -65 6
-29 4 -33 -20 -39 -28 -7 -133 1 -143 10 -5 6 117 126 128 126 4 0 11 -15 17
-32z m-4414 15 c-7 -2 -19 -2 -25 0 -7 3 -2 5 12 5 14 0 19 -2 13 -5z m3172
-65 c9 -35 24 -71 33 -80 8 -10 10 -18 4 -18 -6 0 -17 -3 -25 -6 -9 -3 -14 0
-14 8 1 7 -5 37 -13 66 -9 35 -18 51 -27 48 -16 -7 -17 16 -1 32 20 20 25 14
43 -50z m1440 -28 c4 -6 27 -21 53 -34 l46 -23 -38 -13 c-39 -13 -66 -2 -66
26 0 8 -6 14 -14 14 -18 0 -29 16 -21 30 8 13 32 13 40 0z m-82 -50 c9 0 17
-4 17 -9 0 -12 -74 -20 -81 -8 -4 5 -13 6 -20 3 -8 -4 -5 0 6 9 11 9 29 14 40
11 11 -3 28 -6 38 -6z m1067 -54 c-6 -8 -18 -12 -26 -9 -8 3 -14 -1 -14 -8 -1
-25 -35 -59 -65 -64 -29 -5 -28 -3 23 45 29 27 62 50 74 50 17 0 18 -3 8 -14z
m-960 -719 c0 -5 8 -6 18 -2 13 5 14 3 6 -5 -9 -9 -21 -8 -48 5 -48 23 -55 36
-11 22 19 -6 35 -15 35 -20z m-260 -1 c0 -3 -4 -8 -10 -11 -5 -3 -10 -1 -10 4
0 6 5 11 10 11 6 0 10 -2 10 -4z m675 -28 c6 -7 -7 -9 -37 -6 -27 2 -50 -1
-52 -7 -2 -5 -6 -7 -10 -4 -3 3 -4 14 0 23 5 13 15 15 48 10 22 -4 46 -11 51
-16z m-125 -367 c0 -4 -7 -16 -15 -27 -8 -12 -11 -24 -8 -28 3 -3 -2 -15 -11
-25 -18 -19 -17 -20 18 -15 23 3 36 0 36 -7 0 -7 16 -27 37 -46 26 -25 36 -42
35 -64 0 -19 6 -34 19 -42 12 -8 19 -23 19 -43 0 -17 7 -37 15 -44 8 -7 15 -8
15 -2 0 13 35 22 50 12 9 -5 9 -9 1 -14 -6 -4 -11 -2 -11 5 0 7 -3 9 -7 5 -13
-13 -2 -89 17 -114 11 -14 20 -30 20 -37 0 -7 11 -20 25 -29 14 -9 28 -29 31
-44 4 -15 15 -38 26 -51 16 -21 17 -27 5 -45 -8 -12 -24 -22 -35 -24 -11 -2
-37 -19 -57 -37 -20 -19 -54 -39 -76 -45 -33 -9 -40 -15 -37 -33 2 -12 -7 -32
-20 -46 -12 -14 -20 -31 -18 -38 3 -7 1 -13 -4 -13 -6 0 -10 -6 -10 -12 0 -7
-14 -26 -30 -42 -16 -15 -32 -41 -35 -57 -4 -16 -14 -33 -23 -39 -9 -5 -13
-10 -8 -10 18 0 -27 -40 -46 -40 -10 0 -46 -12 -80 -26 -49 -20 -66 -24 -80
-15 -27 17 -41 13 -35 -9 3 -11 1 -20 -5 -20 -5 0 -6 -4 -3 -10 8 -12 -5 -13
-25 0 -12 8 -12 14 -1 45 7 20 11 39 8 42 -3 2 -8 -5 -12 -16 -13 -42 -33 -14
-26 38 2 7 -2 10 -8 6 -6 -3 -11 0 -11 9 0 10 8 13 30 10 17 -3 30 -2 30 3 0
4 12 9 28 9 72 4 179 28 196 45 19 17 20 25 17 117 -2 33 -42 45 -121 36 -36
-4 -75 -7 -87 -7 -13 1 -20 -4 -17 -9 3 -5 -7 -3 -23 6 -29 14 -61 48 -132
136 -43 53 -71 64 -117 45 -57 -23 -55 5 5 74 28 32 51 64 51 70 0 7 10 25 22
41 l22 30 -21 28 c-12 16 -28 50 -37 76 -21 62 -44 96 -66 96 -31 0 -99 62
-99 91 -1 23 4 28 37 34 20 4 134 9 252 12 292 6 294 6 314 26 10 9 23 14 29
10 7 -4 8 0 3 13 -5 10 -9 25 -9 32 0 6 -6 12 -14 12 -18 0 -16 17 4 28 16 10
63 -4 63 -17z m-3560 -145 c25 -31 56 -60 70 -65 14 -5 34 -12 44 -17 14 -5
17 -4 11 5 -12 21 37 3 58 -21 9 -11 17 -18 17 -15 0 3 15 0 33 -7 17 -8 66
-17 107 -20 113 -10 150 -17 150 -27 0 -6 -4 -8 -9 -5 -5 3 -11 -1 -15 -9 -3
-9 -19 -15 -38 -16 -32 0 -32 -1 12 -15 55 -17 114 -18 140 -2 34 21 34 0 -1
-29 -33 -28 -94 -55 -104 -45 -3 3 -5 -3 -5 -12 0 -11 -5 -16 -13 -13 -9 3
-13 -4 -13 -22 l1 -26 -95 3 c-82 3 -247 27 -259 38 -2 2 2 10 8 18 9 11 10
20 1 36 -7 13 -8 31 -2 54 11 36 0 66 -23 66 -8 0 -15 6 -15 14 0 7 -14 25
-32 40 -17 14 -33 36 -35 48 -2 13 -8 25 -13 26 -6 2 -10 10 -10 17 0 8 -11
22 -25 33 -14 11 -25 25 -25 31 0 21 34 -6 80 -63z m2744 -72 c9 -24 7 -34 -7
-34 -7 0 -14 11 -15 25 -2 28 12 34 22 9z m-47 -9 c14 -14 14 -18 -1 -34 -9
-10 -16 -23 -16 -30 0 -11 -46 -79 -62 -91 -18 -14 -28 -62 -17 -82 9 -18 9
-20 -4 -15 -9 3 -18 -1 -21 -9 -3 -8 -10 -14 -16 -14 -13 0 -13 37 0 42 11 4
2 48 -11 48 -5 0 -11 -11 -15 -25 -3 -14 -11 -25 -16 -25 -6 0 -8 -9 -5 -20 3
-11 1 -17 -4 -14 -6 3 -15 1 -22 -4 -7 -6 -33 -13 -58 -17 -36 -5 -49 -3 -63
10 -9 9 -36 19 -59 23 -23 3 -58 16 -78 29 -21 14 -43 21 -53 17 -12 -5 -15
-2 -10 10 3 9 2 16 -4 16 -6 0 -23 11 -39 24 -15 13 -37 25 -48 27 -11 3 -20
12 -20 21 0 20 -34 58 -52 58 -7 0 -13 5 -13 10 0 14 1 14 87 -27 45 -21 91
-35 108 -34 17 1 45 2 63 1 17 0 32 5 32 10 0 6 9 10 20 10 11 0 20 6 21 13 0
6 4 2 9 -10 11 -26 37 -30 65 -9 11 8 25 12 32 9 7 -3 26 -1 41 5 15 6 39 13
53 16 14 3 38 17 55 31 25 22 67 41 97 44 5 1 15 -6 24 -14z m-1863 -39 c-3
-14 -10 -26 -15 -26 -11 0 -11 3 1 36 13 33 23 26 14 -10z m316 -16 c-14 -4
-20 -9 -15 -9 6 -1 3 -5 -5 -11 -8 -5 -11 -12 -7 -16 4 -4 12 -3 18 3 6 6 28
9 51 5 32 -4 44 -1 54 12 13 19 52 14 66 -7 4 -6 12 -4 23 6 20 21 54 22 61 2
3 -8 14 -17 24 -20 20 -6 52 4 45 15 -3 4 2 13 10 20 33 27 112 -10 350 -165
143 -93 147 -95 194 -95 23 0 41 -5 41 -11 0 -13 12 -24 65 -64 22 -16 53 -41
68 -55 72 -64 107 -80 174 -80 34 0 63 -4 63 -8 0 -5 12 -14 26 -21 25 -11 26
-12 9 -31 -10 -11 -23 -16 -29 -12 -6 3 -72 8 -146 9 -74 2 -188 4 -253 6 -64
1 -117 0 -117 -3 0 -3 -35 -5 -77 -5 -43 0 -122 -3 -176 -6 -115 -7 -117 -5
-117 90 0 47 -4 62 -17 69 -33 17 -42 4 -36 -52 4 -39 1 -63 -11 -86 -9 -18
-16 -34 -16 -35 0 -1 18 -14 40 -29 37 -24 39 -27 29 -56 -9 -26 -16 -30 -47
-31 -62 -1 -107 -9 -110 -19 -2 -6 -15 -10 -28 -10 -14 0 -38 -10 -54 -21 -26
-19 -51 -24 -146 -28 -35 -2 -81 -51 -94 -101 -7 -25 -19 -53 -27 -62 -9 -10
-12 -18 -8 -18 5 0 4 -5 -2 -11 -7 -7 -8 -21 -3 -39 7 -26 5 -30 -23 -41 -34
-14 -75 -13 -94 3 -7 5 -17 7 -22 3 -6 -3 -13 11 -17 36 -4 24 -17 52 -29 63
-12 12 -25 38 -28 60 -3 21 -13 47 -22 56 -9 10 -19 36 -22 58 -5 36 -2 41 40
76 51 41 92 123 83 162 -7 28 -53 54 -96 54 -16 0 -30 4 -30 8 0 17 25 32 53
32 46 0 67 18 101 88 17 37 44 88 60 114 21 36 27 58 25 92 -3 49 12 76 39 69
10 -2 31 3 47 12 l30 17 -27 -6 c-16 -4 -28 -4 -28 -1 0 9 65 33 90 33 l25 0
-25 -8z m537 4 c-3 -3 -12 -4 -19 -1 -8 3 -5 6 6 6 11 1 17 -2 13 -5z m1309
-84 c3 -27 15 -58 25 -69 27 -28 24 -36 -23 -84 -24 -24 -63 -65 -88 -93 -68
-74 -120 -99 -238 -114 -54 -7 -132 -11 -172 -8 -70 5 -74 7 -106 44 l-32 39
101 6 c56 3 111 9 122 13 44 17 110 51 113 59 2 4 10 7 17 7 8 0 47 32 87 71
40 39 81 75 91 81 10 5 16 12 13 15 -6 7 31 63 54 80 22 17 29 8 36 -47z
m-2961 30 c7 -12 -2 -12 -30 0 -19 8 -19 9 2 9 12 1 25 -3 28 -9z m45 -10 c0
-5 -7 -7 -15 -4 -8 4 -15 8 -15 10 0 2 7 4 15 4 8 0 15 -4 15 -10z m2798 -55
c-2 -5 -11 -11 -21 -12 -15 -3 -16 -1 -5 12 14 15 32 16 26 0z m-932 -20 c4
-8 12 -15 20 -15 8 0 14 -4 14 -10 0 -5 5 -10 11 -10 5 0 7 6 4 13 -4 6 0 4 8
-6 11 -13 24 -16 51 -13 37 5 49 -7 19 -18 -15 -6 -15 -8 -3 -16 8 -6 28 -10
45 -10 19 0 26 -3 19 -10 -16 -16 -131 9 -164 36 -15 13 -33 24 -38 24 -6 0
-14 5 -18 12 -5 7 -3 8 7 3 8 -5 5 1 -5 13 -19 22 -19 22 3 22 12 0 24 -7 27
-15z m-1075 -124 c-34 -33 -37 -41 -19 -59 14 -14 -2 -37 -31 -45 -16 -4 -21
4 -30 51 -6 30 -9 57 -7 60 6 5 110 29 115 26 1 -2 -11 -16 -28 -33z m-103
-47 c3 -51 3 -52 -35 -67 -21 -8 -58 -18 -83 -22 -25 -4 -89 -18 -142 -31 -53
-13 -112 -24 -130 -24 -44 0 -298 64 -339 86 -45 23 -65 44 -73 78 -6 25 -5
28 11 21 18 -8 161 -44 176 -45 4 0 7 5 7 10 0 6 -7 10 -16 10 -8 0 -13 4 -9
9 3 5 -7 12 -22 14 -16 2 -8 3 16 2 24 -2 46 -7 50 -12 3 -5 17 -9 31 -10 14
0 63 -4 110 -9 81 -8 83 -9 40 -16 -25 -3 2 -4 60 -2 112 5 228 26 282 49 52
23 63 17 66 -41z m-151 40 c-3 -3 -12 -4 -19 -1 -8 3 -5 6 6 6 11 1 17 -2 13
-5z m-104 -21 c-7 -2 -19 -2 -25 0 -7 3 -2 5 12 5 14 0 19 -2 13 -5z m3674
-19 c-3 -3 -12 -4 -19 -1 -8 3 -5 6 6 6 11 1 17 -2 13 -5z m-1932 -44 c22 -15
50 -42 63 -59 l25 -31 -23 0 c-13 0 -47 25 -88 66 -51 51 -61 65 -42 59 14 -4
43 -19 65 -35z m103 -23 c7 -6 20 -23 28 -39 14 -26 13 -28 -6 -28 -11 0 -20
4 -20 9 0 5 -16 26 -35 45 l-35 36 27 -6 c16 -4 34 -11 41 -17z m601 -44 c8
-21 22 -56 32 -77 10 -22 17 -42 14 -44 -14 -14 -114 -13 -149 2 -51 21 -91
20 -159 -3 -32 -11 -57 -17 -57 -13 0 4 -21 18 -47 32 l-47 25 54 7 c30 3 87
9 125 13 65 6 105 18 130 38 22 17 80 56 85 57 4 0 12 -17 19 -37z m148 -50
c32 -32 80 -77 107 -99 48 -42 48 -42 32 -72 -8 -16 -23 -32 -32 -36 -22 -9
-54 21 -54 50 0 32 -44 80 -79 87 -28 6 -42 23 -71 86 -8 19 -8 26 2 33 24 15
36 8 95 -49z m-2418 -5 c-27 -53 -40 -65 -75 -73 -16 -4 -57 -16 -92 -28 -47
-15 -66 -17 -74 -9 -7 7 -42 12 -80 12 -73 0 -123 15 -149 46 -18 21 -30 62
-21 68 4 2 41 -4 82 -15 101 -25 163 -24 251 5 70 24 105 31 157 35 l22 1 -21
-42z m-600 16 c27 -11 43 -25 50 -44 5 -16 21 -36 34 -45 32 -20 46 -51 17
-35 -27 14 -34 12 -20 -5 23 -28 81 -36 144 -20 70 18 90 19 105 2 8 -11 5
-19 -12 -35 -22 -21 -27 -22 -158 -12 -183 14 -189 17 -243 102 -26 40 -46 77
-46 84 0 27 71 32 129 8z m754 -31 c4 -2 7 -20 7 -39 0 -29 -10 -46 -57 -97
-109 -116 -123 -123 -190 -87 -37 19 -53 22 -115 18 -40 -3 -82 -9 -93 -13
-16 -6 -13 -1 10 24 56 60 131 94 236 105 50 5 109 30 109 46 0 6 11 10 25 10
16 0 25 6 25 16 0 13 -8 15 -39 12 -32 -3 -37 -1 -29 10 8 9 25 11 57 6 25 -4
49 -8 54 -11z m1720 -69 c26 -12 36 -26 47 -62 25 -86 -25 -125 -105 -79 -55
31 -61 92 -13 137 26 24 28 24 71 4z m417 -34 c107 -14 112 -18 135 -96 32
-112 13 -164 -62 -164 -54 0 -153 24 -205 51 -20 10 -51 19 -67 19 -39 0 -76
38 -111 117 l-28 62 36 7 c20 3 51 10 67 14 34 10 99 7 235 -10z m-2662 -96
c16 -5 22 -13 20 -28 -3 -19 -8 -21 -63 -17 -73 4 -97 18 -63 37 25 14 69 17
106 8z m-148 -24 c8 -5 11 -12 8 -16 -10 -9 -38 3 -38 16 0 12 10 13 30 0z
m-55 -21 c-4 -5 -13 -9 -22 -9 -13 0 -13 3 -3 15 13 15 35 11 25 -6z m422 9
c15 -6 43 -25 61 -42 31 -29 34 -30 82 -20 45 10 50 9 50 -7 0 -10 -15 -33
-33 -51 -33 -32 -63 -53 -281 -197 l-108 -71 6 36 c5 24 4 34 -3 29 -6 -3 -11
-15 -11 -25 0 -11 -9 -24 -20 -30 -11 -6 -20 -21 -20 -33 0 -18 -11 -27 -57
-44 -85 -33 -85 -33 -95 11 -5 22 -18 59 -30 83 -21 42 -21 43 -2 57 23 17 34
12 34 -15 0 -36 19 -59 48 -59 55 0 71 54 27 92 -31 26 -31 35 -3 59 32 28 46
23 72 -28 l16 -32 35 20 c40 24 46 56 16 83 -25 23 -34 61 -21 86 15 28 44 25
65 -6 13 -21 22 -25 43 -19 15 4 29 11 33 16 3 5 16 -2 29 -16 13 -14 32 -25
43 -25 19 0 18 2 -4 23 -13 13 -37 40 -52 60 -19 25 -36 37 -53 37 -58 0 16
37 78 39 15 1 40 -4 55 -11z m-237 -29 c58 -6 101 -15 109 -24 23 -23 6 -29
-46 -15 -30 7 -103 11 -198 8 -127 -2 -150 0 -150 12 0 12 18 16 80 20 44 3
87 6 95 7 8 1 58 -3 110 -8z m2271 -19 c34 0 39 -3 39 -23 0 -13 -8 -34 -19
-45 -18 -22 -18 -22 -36 -2 -10 11 -24 20 -30 20 -7 0 -15 14 -17 30 -4 24 -1
30 9 25 8 -3 32 -5 54 -5z m-2372 -50 c15 -24 15 -24 -3 -10 -10 8 -35 20 -55
27 l-36 12 39 -2 c29 -2 43 -8 55 -27z m73 -30 c28 -56 35 -90 19 -90 -5 0
-16 19 -26 42 -9 23 -25 54 -36 69 -23 33 -24 41 -2 37 10 -2 30 -28 45 -58z
m26 48 c-6 -18 -25 -20 -31 -3 -5 10 0 15 14 15 12 0 19 -5 17 -12z m-249 -34
c-32 -31 -41 -35 -68 -29 -58 12 -33 45 34 45 19 0 37 5 40 10 3 6 11 10 18
10 6 0 -5 -16 -24 -36z m379 20 c-11 -11 -23 -14 -35 -9 -16 7 -15 9 7 15 40
12 45 11 28 -6z m-260 -21 c8 -8 9 -13 3 -13 -6 0 -11 -4 -11 -10 0 -5 14 -10
31 -10 43 0 32 -24 -13 -28 -30 -3 -37 1 -44 20 -4 13 -14 28 -23 35 -14 11
-14 14 -2 22 16 10 39 4 59 -16z m2562 7 c0 -5 -4 -10 -10 -10 -5 0 -10 5 -10
10 0 6 5 10 10 10 6 0 10 -4 10 -10z m-2604 -67 c4 -16 13 -23 31 -23 15 0 22
-4 18 -11 -4 -6 -13 -8 -21 -5 -8 3 -11 0 -7 -10 9 -25 -14 -15 -41 17 -28 33
-42 72 -31 89 9 14 43 -24 51 -57z m2658 53 c-3 -8 -12 -12 -20 -9 -21 8 -17
23 6 23 13 0 18 -5 14 -14z m-2014 -14 c0 -10 -17 -36 -37 -56 -47 -47 -234
-173 -271 -183 -71 -17 -200 -92 -232 -135 -3 -3 -17 -9 -32 -13 -30 -8 -55
-32 -44 -42 4 -4 19 -2 34 4 15 6 36 14 47 18 l20 7 -20 -15 c-121 -90 -341
-138 -497 -107 -138 27 -188 71 -188 167 0 78 9 91 31 46 22 -44 64 -75 140
-105 66 -26 218 -30 294 -9 78 22 225 95 293 146 34 26 108 70 164 99 114 58
151 78 158 87 3 3 25 19 50 36 25 17 54 40 64 52 23 26 26 26 26 3z m2424 -31
c-2 -2 -10 1 -17 7 -8 7 -17 9 -20 5 -4 -3 -7 -2 -7 3 0 6 5 15 12 22 10 10
15 7 24 -10 7 -13 11 -25 8 -27z m-3213 12 c30 -9 56 -20 59 -23 3 -3 23 -18
45 -35 46 -34 72 -62 81 -88 12 -36 -7 -29 -60 21 -32 31 -85 66 -130 87 -42
19 -76 40 -76 45 0 14 20 12 81 -7z m2969 -2 c0 -4 -19 -25 -42 -47 -97 -93
-140 -80 -47 13 36 36 56 49 70 46 10 -3 19 -8 19 -12z m-2886 -7 c4 -10 1
-14 -6 -12 -15 5 -23 28 -10 28 5 0 13 -7 16 -16z m3083 -10 c37 -6 47 -16 38
-44 -4 -12 -15 -20 -28 -19 l-22 0 23 11 c12 6 22 15 22 20 0 12 -18 10 -22
-3 -3 -8 -31 -4 -92 14 -49 15 -91 29 -94 31 -5 5 123 -2 175 -10z m-2897 -13
c0 -6 -4 -13 -10 -16 -5 -3 -10 1 -10 9 0 9 5 16 10 16 6 0 10 -4 10 -9z
m-320 -12 c0 -11 -44 -19 -68 -13 -12 4 -19 10 -16 15 6 10 84 7 84 -2z m109
-52 l44 -30 -23 -19 c-13 -11 -31 -16 -41 -13 -11 4 -19 2 -19 -5 0 -6 3 -9 8
-7 4 2 18 -9 30 -25 l24 -28 -36 21 c-20 12 -45 19 -55 16 -24 -6 -81 48 -59
55 7 3 -3 8 -22 12 -57 12 -70 17 -70 26 0 11 40 24 65 21 12 -1 32 2 45 8 32
12 54 6 109 -32z m266 23 c18 15 34 5 18 -11 -15 -15 -55 -7 -61 11 -5 13 -3
13 11 1 14 -11 20 -11 32 -1z m445 -9 c-27 -51 -149 -127 -305 -191 -44 -18
-99 -46 -122 -61 -51 -34 -55 -30 -10 10 30 28 64 46 167 87 47 19 231 135
253 159 18 21 29 18 17 -4z m2053 -7 c-4 -11 1 -22 12 -30 18 -13 18 -14 -3
-14 -13 0 -25 7 -28 15 -7 18 2 45 15 45 6 0 8 -7 4 -16z m-2974 -45 c82 -43
125 -82 160 -143 47 -82 46 -83 -64 -91 -120 -9 -163 -2 -238 37 -76 41 -95
76 -72 131 19 45 87 97 128 97 16 0 55 -14 86 -31z m371 -34 c0 -8 -4 -17 -10
-20 -6 -4 -10 5 -10 20 0 15 4 24 10 20 6 -3 10 -12 10 -20z m-133 -83 c16
-14 23 -32 23 -56 0 -49 -19 -46 -52 7 -15 24 -37 52 -48 62 -11 10 -20 21
-20 25 0 12 73 -17 97 -38z m2757 0 c-4 -19 0 -34 11 -45 23 -24 33 -21 65 13
20 21 31 27 36 18 4 -7 -2 -18 -17 -27 -13 -9 -42 -30 -65 -48 l-42 -31 -16
48 c-25 77 -22 91 26 99 4 0 5 -12 2 -27z m26 -149 c0 -22 -2 -25 -10 -13 -13
20 -13 40 0 40 6 0 10 -12 10 -27z"/>
<path d="M5570 4635 c0 -9 5 -15 11 -13 6 2 11 8 11 13 0 5 -5 11 -11 13 -6 2
-11 -4 -11 -13z"/>
<path d="M5363 4559 c-13 -5 -23 -15 -23 -24 0 -12 4 -14 19 -5 20 10 36 29
30 34 -2 2 -14 0 -26 -5z"/>
<path d="M5170 4401 c0 -5 6 -14 14 -20 16 -13 32 2 21 19 -8 12 -35 13 -35 1z"/>
<path d="M4957 4314 c-4 -4 1 -20 10 -35 13 -22 20 -26 30 -17 7 6 13 21 13
34 0 18 -5 24 -23 24 -13 0 -27 -3 -30 -6z"/>
<path d="M4222 3390 c0 -14 2 -19 5 -12 2 6 2 18 0 25 -3 6 -5 1 -5 -13z"/>
<path d="M4175 3323 c-10 -27 -33 -76 -52 -111 -19 -35 -33 -65 -31 -68 3 -2
21 13 41 33 26 25 35 42 31 55 -3 10 -1 18 5 18 6 0 11 6 11 14 0 7 7 27 15
42 8 16 15 37 15 47 0 32 -17 17 -35 -30z"/>
<path d="M4448 2993 c6 -2 18 -2 25 0 6 3 1 5 -13 5 -14 0 -19 -2 -12 -5z"/>
<path d="M1950 2941 c0 -5 7 -11 14 -14 10 -4 13 -1 9 9 -6 15 -23 19 -23 5z"/>
<path d="M2250 2934 c0 -8 5 -12 10 -9 6 3 10 10 10 16 0 5 -4 9 -10 9 -5 0
-10 -7 -10 -16z"/>
<path d="M4234 2893 c4 -4 21 -12 39 -18 20 -6 31 -16 30 -26 -2 -9 11 -20 35
-28 63 -22 92 -36 92 -43 0 -5 -4 -8 -10 -8 -5 0 -7 -7 -4 -15 8 -20 -10 -19
-27 2 -21 24 -73 43 -121 43 -70 0 -76 -15 -11 -29 55 -11 85 -22 125 -42 24
-12 75 -11 83 1 4 6 -9 32 -27 58 -25 34 -52 56 -99 79 -56 29 -125 45 -105
26z"/>
<path d="M3512 2837 c-17 -40 -15 -54 4 -35 9 8 14 26 12 39 -4 24 -5 24 -16
-4z"/>
<path d="M2445 2833 c-45 -10 -109 -50 -146 -91 -54 -62 -55 -89 0 -32 16 17
35 28 43 25 9 -4 30 12 56 40 44 48 52 53 52 30 0 -9 6 -12 17 -8 11 4 14 3 9
-5 -4 -7 -13 -12 -20 -12 -15 0 -70 -58 -81 -85 -4 -11 -11 -36 -16 -55 -7
-32 -7 -34 7 -15 38 51 61 80 87 109 77 85 74 117 -8 99z"/>
<path d="M3980 2817 c-31 -10 -32 -11 -11 -15 31 -5 73 6 66 18 -7 12 -9 12
-55 -3z"/>
<path d="M4065 2820 c-4 -6 6 -10 24 -10 16 0 33 5 36 10 4 6 -6 10 -24 10
-16 0 -33 -4 -36 -10z"/>
<path d="M3440 2799 c-15 -27 -10 -31 13 -9 11 11 14 20 8 24 -5 4 -15 -3 -21
-15z"/>
<path d="M3140 2751 c0 -9 24 -21 42 -21 6 0 6 6 -2 15 -14 16 -40 20 -40 6z"/>
<path d="M3445 2626 c-51 -13 -95 -35 -95 -48 0 -11 2 -10 42 7 24 9 38 11 45
4 11 -11 86 5 110 24 17 12 33 0 33 -24 0 -16 -5 -19 -20 -14 -28 9 -99 -26
-139 -69 -41 -42 -34 -45 24 -11 24 13 64 32 91 41 108 36 125 73 43 92 -60
14 -69 14 -134 -2z"/>
<path d="M3966 2604 c-4 -9 -4 -19 -1 -22 2 -3 7 3 11 12 4 9 4 19 1 22 -2 3
-7 -3 -11 -12z"/>
<path d="M2306 2583 c-6 -14 -5 -15 5 -6 7 7 10 15 7 18 -3 3 -9 -2 -12 -12z"/>
<path d="M2279 2521 c-7 -23 -16 -41 -20 -41 -13 0 -23 -70 -12 -81 7 -7 17
18 31 73 22 86 22 120 1 49z"/>
<path d="M4630 2445 c0 -8 4 -15 10 -15 5 0 7 7 4 15 -4 8 -8 15 -10 15 -2 0
-4 -7 -4 -15z"/>
<path d="M3282 2414 c-17 -20 -34 -34 -40 -31 -11 7 -36 -36 -31 -52 2 -6 28
16 58 49 29 34 51 63 48 66 -2 3 -18 -11 -35 -32z"/>
<path d="M3950 2413 c-30 -15 -56 -34 -58 -41 -3 -11 3 -10 27 2 18 10 41 14
55 10 15 -3 38 1 57 10 18 9 38 16 46 16 7 0 13 5 13 10 0 21 18 9 23 -16 3
-18 1 -24 -9 -20 -32 12 -126 -51 -153 -101 -11 -21 -8 -21 31 6 24 16 73 43
110 61 107 51 102 83 -15 88 -63 3 -79 0 -127 -25z"/>
<path d="M4320 2404 c0 -4 15 -24 33 -45 17 -21 42 -51 55 -66 29 -34 19 -13
-22 47 -41 61 -66 85 -66 64z"/>
<path d="M2820 2368 c-50 -49 -98 -174 -83 -215 10 -26 23 -12 23 26 0 29 4
40 19 44 13 3 21 18 27 53 4 27 8 54 7 61 0 6 6 14 13 17 8 3 14 1 14 -5 0 -6
5 -7 10 -4 13 8 13 -8 0 -21 -18 -18 -22 -106 -7 -154 l15 -45 1 35 c1 19 8
70 16 114 13 75 8 126 -13 126 -4 0 -23 -15 -42 -32z"/>
<path d="M2597 2340 c3 -11 7 -20 9 -20 2 0 4 9 4 20 0 11 -4 20 -9 20 -5 0
-7 -9 -4 -20z"/>
<path d="M3885 2260 c-3 -5 -1 -10 4 -10 6 0 11 5 11 10 0 6 -2 10 -4 10 -3 0
-8 -4 -11 -10z"/>
<path d="M1734 2249 c-13 -22 21 -94 65 -137 43 -43 75 -63 119 -76 35 -11 26
11 -13 30 -24 11 -35 23 -35 38 -1 14 -15 30 -46 49 -25 15 -49 27 -55 27 -5
0 -9 7 -9 16 0 8 5 12 10 9 6 -3 10 -1 10 5 0 6 14 -2 31 -19 17 -17 36 -31
43 -31 6 0 17 -5 23 -11 10 -10 113 -20 113 -11 0 2 -24 15 -52 29 -29 13 -71
36 -93 49 -75 45 -99 52 -111 33z"/>
<path d="M3846 2224 c-9 -8 -21 -25 -27 -36 -6 -12 -14 -16 -18 -11 -3 6 -14
-4 -23 -23 -40 -78 24 -23 85 73 11 18 2 16 -17 -3z"/>
<path d="M4540 2181 c0 -27 -4 -52 -9 -56 -5 -3 -8 -22 -5 -43 3 -20 7 -50 9
-67 2 -16 1 -25 -1 -18 -3 7 -11 10 -17 7 -8 -3 -12 14 -13 54 -2 59 -3 62
-58 125 -17 21 -18 21 -13 2 23 -80 46 -179 42 -183 -10 -10 27 -63 42 -60 45
9 76 149 53 233 -18 63 -30 65 -30 6z"/>
<path d="M3223 2155 c-19 -50 20 -172 73 -228 32 -34 44 -28 19 10 -10 15 -18
34 -19 42 -2 26 -38 92 -53 98 -19 8 -16 31 7 43 19 10 24 6 21 -13 -4 -20 61
-91 103 -113 25 -14 46 -23 46 -20 0 2 -17 22 -37 43 -21 22 -57 66 -80 97
-43 56 -69 69 -80 41z"/>
<path d="M4720 2102 c0 -5 6 -17 14 -28 16 -21 30 -16 20 9 -6 16 -34 32 -34
19z"/>
<path d="M2075 2089 c22 -5 52 -13 66 -18 16 -5 37 -4 55 4 27 11 25 12 -41
18 -97 9 -131 7 -80 -4z"/>
<path d="M2846 2020 c4 -19 8 -50 8 -68 2 -28 30 -73 39 -61 2 2 -9 40 -25 84
-15 44 -25 64 -22 45z"/>
<path d="M2309 1983 c-13 -33 -4 -125 15 -163 23 -46 41 -75 51 -82 15 -11 19
0 5 16 -6 9 -14 37 -16 63 -3 26 -10 54 -17 63 -38 48 -39 72 -4 78 12 2 17
-4 17 -23 0 -39 42 -97 90 -124 l43 -24 -40 54 c-22 30 -43 61 -47 69 -18 43
-56 95 -70 98 -10 2 -20 -7 -27 -25z"/>
<path d="M1675 1991 c-2 -4 5 -13 17 -20 11 -7 17 -8 14 -2 -3 5 2 11 11 13
13 3 10 6 -10 10 -15 3 -29 2 -32 -1z"/>
<path d="M3080 1940 c8 -5 20 -10 25 -10 6 0 3 5 -5 10 -8 5 -19 10 -25 10 -5
0 -3 -5 5 -10z"/>
<path d="M3935 1930 c-3 -5 -1 -10 4 -10 6 0 11 5 11 10 0 6 -2 10 -4 10 -3 0
-8 -4 -11 -10z"/>
<path d="M3450 1916 c0 -8 71 -48 76 -43 3 3 -12 15 -35 27 -23 11 -41 18 -41
16z"/>
<path d="M3718 1893 c7 -3 16 -2 19 1 4 3 -2 6 -13 5 -11 0 -14 -3 -6 -6z"/>
<path d="M3540 1855 c0 -8 14 -17 35 -21 50 -9 55 2 10 20 -46 19 -45 19 -45
1z"/>
<path d="M2146 1796 c21 -15 30 -14 19 3 -3 6 -14 11 -23 11 -13 0 -13 -2 4
-14z"/>
<path d="M3863 1766 c-58 -19 -109 -52 -139 -92 -45 -58 -14 -79 71 -50 22 8
71 17 108 21 88 10 75 29 -21 29 -49 1 -75 -4 -95 -17 -15 -10 -32 -15 -37
-12 -17 10 -11 41 8 42 42 4 112 27 112 38 0 7 26 20 58 29 31 10 62 19 67 21
32 11 -97 1 -132 -9z"/>
<path d="M2480 1752 c0 -20 88 -89 149 -118 54 -25 46 -10 -16 32 -32 21 -75
51 -95 67 -21 16 -38 24 -38 19z"/>
<path d="M3998 1683 c7 -3 16 -2 19 1 4 3 -2 6 -13 5 -11 0 -14 -3 -6 -6z"/>
<path d="M4041 1686 c10 -10 154 -44 163 -39 5 3 -6 13 -25 22 -21 11 -37 13
-41 7 -4 -6 -16 -6 -33 2 -24 11 -73 17 -64 8z"/>
<path d="M3271 1598 c-26 -7 -31 -12 -20 -19 10 -6 10 -9 2 -9 -7 0 -13 -5
-13 -10 0 -6 23 1 50 15 28 14 50 28 50 30 0 7 -31 4 -69 -7z"/>
<path d="M3190 1529 c-17 -13 -18 -17 -5 -10 33 17 51 31 40 31 -5 0 -21 -10
-35 -21z"/>
<path d="M4475 1300 c-3 -5 -1 -10 4 -10 6 0 11 5 11 10 0 6 -2 10 -4 10 -3 0
-8 -4 -11 -10z"/>
<path d="M3335 1270 c-10 -16 4 -50 21 -50 11 0 14 8 12 27 -3 28 -22 41 -33
23z"/>
<path d="M3377 1184 c-11 -11 -8 -60 5 -104 20 -64 35 -46 29 35 -3 36 -24 79
-34 69z"/>
<path d="M4885 1360 c-7 -12 4 -60 21 -85 18 -25 18 -18 -1 35 -8 23 -12 46
-9 51 3 5 3 9 0 9 -3 0 -7 -4 -11 -10z"/>
<path d="M2641 1114 c0 -11 3 -14 6 -6 3 7 2 16 -1 19 -3 4 -6 -2 -5 -13z"/>
<path d="M2400 622 c0 -21 36 -38 65 -32 26 6 28 8 10 14 -11 4 -30 12 -43 17
-28 11 -32 11 -32 1z"/>
<path d="M2565 570 l-30 -8 27 -1 c15 0 30 4 33 9 3 6 5 9 3 9 -2 -1 -16 -5
-33 -9z"/>
<path d="M2345 490 c3 -5 8 -10 11 -10 2 0 4 5 4 10 0 6 -5 10 -11 10 -5 0 -7
-4 -4 -10z"/>
<path d="M2176 335 c4 -8 8 -15 10 -15 2 0 4 7 4 15 0 8 -4 15 -10 15 -5 0 -7
-7 -4 -15z"/>
<path d="M1858 403 c7 -3 16 -2 19 1 4 3 -2 6 -13 5 -11 0 -14 -3 -6 -6z"/>
<path d="M2794 6364 c-32 -41 -59 -133 -44 -148 7 -7 10 -3 10 11 0 12 7 28
15 37 19 19 35 60 35 92 0 14 6 24 14 24 20 0 30 -18 18 -33 -17 -22 -21 -74
-10 -113 l12 -39 7 60 c4 33 10 79 14 103 7 40 7 42 -18 42 -18 0 -34 -11 -53
-36z"/>
<path d="M3147 6393 c-10 -9 -9 -23 2 -23 5 0 11 7 15 15 5 15 -5 20 -17 8z"/>
<path d="M2630 6371 c0 -6 4 -13 10 -16 6 -3 7 1 4 9 -7 18 -14 21 -14 7z"/>
<path d="M3700 6310 c-9 -6 -10 -10 -3 -10 6 0 15 5 18 10 8 12 4 12 -15 0z"/>
<path d="M3663 6273 c-15 -5 -17 -23 -4 -23 5 0 11 7 15 15 3 8 4 15 3 14 -1
0 -8 -3 -14 -6z"/>
<path d="M3612 6208 c-5 -15 -9 -28 -7 -28 2 0 13 13 24 28 14 20 16 29 7 29
-7 0 -18 -13 -24 -29z"/>
<path d="M3153 6171 c6 -70 57 -160 91 -161 5 0 1 9 -9 20 -10 11 -19 31 -20
44 -3 28 -35 86 -47 86 -15 0 -8 28 8 34 23 9 24 8 24 -16 1 -28 27 -60 71
-87 53 -32 57 -25 13 22 -23 23 -53 59 -69 80 -16 21 -36 37 -48 37 -18 0 -19
-5 -14 -59z"/>
<path d="M2821 6164 c0 -11 3 -14 6 -6 3 7 2 16 -1 19 -3 4 -6 -2 -5 -13z"/>
<path d="M2387 6093 c-4 -3 -7 -32 -7 -63 0 -61 37 -153 67 -164 14 -6 14 -4
0 18 -9 13 -15 36 -15 52 0 16 -9 46 -21 67 -26 46 -26 47 -1 47 11 0 19 -3
19 -7 -4 -27 6 -47 42 -83 55 -54 68 -51 26 8 -19 26 -37 56 -41 68 -7 23 -42
64 -55 64 -4 0 -11 -3 -14 -7z"/>
<path d="M2146 6062 c-8 -26 34 -116 89 -192 58 -79 205 -213 277 -251 33 -18
19 0 -24 30 -38 25 -155 137 -183 173 -67 86 -76 105 -49 94 9 -3 12 -2 9 4
-4 6 -13 9 -22 8 -15 -3 -48 47 -75 117 -14 36 -16 37 -22 17z"/>
<path d="M2845 6038 c4 -13 14 -30 22 -38 14 -13 15 -13 8 5 -4 11 -10 28 -12
38 -3 9 -10 17 -15 17 -5 0 -6 -10 -3 -22z"/>
<path d="M3037 6039 c7 -7 15 -10 18 -7 3 3 -2 9 -12 12 -14 6 -15 5 -6 -5z"/>
<path d="M3362 6004 c9 -9 21 -15 27 -13 6 2 -2 10 -17 17 -25 11 -25 11 -10
-4z"/>
<path d="M3410 5985 c0 -12 34 -35 53 -35 12 0 17 4 12 8 -13 11 -65 33 -65
27z"/>
<path d="M1970 5866 c-47 -6 -80 -14 -74 -18 6 -4 22 -5 35 -2 13 3 44 5 68 5
24 0 53 6 65 14 23 17 27 17 -94 1z"/>
<path d="M2556 5852 c64 -54 89 -72 108 -72 12 0 -8 19 -52 50 -77 54 -106 66
-56 22z"/>
<path d="M3566 5834 c-4 -10 -1 -14 6 -12 15 5 23 28 10 28 -5 0 -13 -7 -16
-16z"/>
<path d="M6372 5807 c-16 -19 -26 -67 -14 -67 6 0 17 -3 26 -6 13 -5 16 2 16
34 0 44 -11 59 -28 39z"/>
<path d="M3778 5783 c7 -3 16 -2 19 1 4 3 -2 6 -13 5 -11 0 -14 -3 -6 -6z"/>
<path d="M2910 5772 c0 -5 26 -16 58 -26 31 -10 69 -25 85 -32 15 -8 27 -10
27 -5 0 5 -13 14 -30 21 -16 7 -39 21 -51 31 -22 19 -89 27 -89 11z"/>
<path d="M2572 5740 c0 -14 2 -19 5 -12 2 6 2 18 0 25 -3 6 -5 1 -5 -13z"/>
<path d="M3164 5717 c14 -19 23 -37 19 -40 -3 -4 5 -17 18 -30 36 -35 51 -65
37 -73 -7 -4 -14 -2 -16 5 -9 27 -49 63 -90 81 -24 11 -42 16 -40 12 8 -20
147 -142 162 -142 44 0 -3 142 -64 194 -44 36 -56 33 -26 -7z"/>
<path d="M3340 5740 c20 -13 33 -13 25 0 -3 6 -14 10 -23 10 -15 0 -15 -2 -2
-10z"/>
<path d="M3641 5710 c-40 -10 -108 -56 -129 -88 -15 -22 -12 -21 34 7 28 18
50 27 52 21 3 -7 13 -5 29 5 13 9 31 15 40 13 10 -2 -1 -12 -30 -27 -26 -13
-55 -33 -64 -45 l-18 -20 30 19 30 18 -19 -27 c-9 -15 -16 -30 -13 -32 5 -5
124 79 165 116 46 41 -12 62 -107 40z"/>
<path d="M2760 5696 c-49 -21 -90 -58 -116 -102 -14 -24 -24 -49 -22 -56 3 -8
11 -1 19 15 9 16 26 34 40 40 13 7 28 22 34 35 5 12 13 22 17 22 4 0 5 7 2 15
-8 19 19 20 34 2 8 -9 6 -16 -8 -25 -26 -16 -46 -57 -54 -110 -5 -32 -3 -43 5
-40 7 2 14 15 16 28 2 13 19 52 38 86 48 85 46 113 -5 90z"/>
<path d="M4156 5648 c-54 -10 -124 -53 -149 -92 -21 -31 -22 -42 -2 -24 46 42
82 60 89 45 3 -8 7 -9 13 -2 10 13 79 45 96 45 7 0 -2 -8 -20 -18 -55 -30
-133 -89 -127 -95 3 -3 15 3 27 13 25 24 33 19 16 -9 -23 -35 -3 -33 37 4 22
20 58 47 81 61 44 26 56 44 47 69 -7 17 -34 18 -108 3z"/>
<path d="M3738 5613 c6 -2 18 -2 25 0 6 3 1 5 -13 5 -14 0 -19 -2 -12 -5z"/>
<path d="M2272 5568 c-47 -22 -122 -101 -122 -127 1 -11 8 -8 24 13 13 16 28
26 33 23 5 -3 18 8 28 24 11 16 23 29 28 29 4 0 7 7 7 15 0 17 26 21 32 4 2
-6 -11 -26 -28 -44 -20 -22 -34 -48 -38 -76 -4 -23 -5 -43 -3 -45 2 -2 20 27
42 64 21 36 44 73 52 81 15 15 14 53 -2 57 -5 2 -29 -6 -53 -18z"/>
<path d="M2677 5533 c-4 -3 -7 -13 -7 -22 1 -13 3 -13 11 2 11 19 8 33 -4 20z"/>
<path d="M3171 5524 c0 -11 3 -14 6 -6 3 7 2 16 -1 19 -3 4 -6 -2 -5 -13z"/>
<path d="M4011 5440 c-22 -27 -41 -53 -41 -59 0 -5 -12 -22 -27 -38 -18 -17
-21 -25 -11 -20 11 4 21 0 27 -11 5 -9 12 -15 14 -12 16 15 93 181 87 185 -4
2 -26 -18 -49 -45z"/>
<path d="M2670 5465 c0 -8 2 -15 4 -15 2 0 6 7 10 15 3 8 1 15 -4 15 -6 0 -10
-7 -10 -15z"/>
<path d="M2667 5433 c-4 -3 -7 -19 -7 -35 0 -20 -4 -27 -12 -22 -8 5 -9 -2 -4
-27 12 -62 24 -53 28 20 1 39 3 71 2 71 0 0 -4 -3 -7 -7z"/>
<path d="M3134 5377 c-22 -34 -44 -109 -44 -150 0 -13 6 -31 13 -41 12 -17 14
-15 14 15 0 30 6 55 34 124 6 15 8 10 8 -21 1 -41 23 -98 43 -110 7 -4 8 -2 4
4 -4 7 -7 46 -7 88 0 122 -24 155 -65 91z"/>
<path d="M2191 5352 c-6 -12 -11 -30 -11 -42 0 -11 -7 -23 -15 -26 -18 -7 -19
-39 -1 -79 13 -30 13 -29 21 34 4 35 11 78 16 94 10 37 5 47 -10 19z"/>
<path d="M3800 5280 c-6 -11 -7 -20 -2 -20 6 0 12 9 15 20 3 11 3 20 1 20 -2
0 -8 -9 -14 -20z"/>
<path d="M3500 5255 c0 -53 92 -185 128 -185 11 0 8 8 -13 30 -16 16 -26 33
-22 36 3 3 -5 18 -19 32 -13 15 -24 30 -24 34 0 5 -7 8 -15 8 -8 0 -15 7 -15
15 0 24 20 17 54 -18 17 -19 51 -42 76 -51 l45 -18 -54 51 c-30 28 -56 51 -58
51 -2 0 -12 9 -23 20 -29 29 -60 26 -60 -5z"/>
<path d="M3200 5118 c0 -13 39 -94 54 -113 12 -16 15 -17 16 -4 0 8 -9 25 -20
37 -11 12 -20 27 -20 34 -1 13 -30 58 -30 46z"/>
<path d="M3784 5065 c28 -14 61 -25 75 -24 23 0 24 1 6 8 -97 38 -141 47 -81
16z"/>
<path d="M3418 5063 c7 -3 16 -2 19 1 4 3 -2 6 -13 5 -11 0 -14 -3 -6 -6z"/>
<path d="M2639 5036 c-2 -3 -33 -7 -67 -9 -35 -3 -65 -7 -68 -9 -2 -3 25 -8
62 -11 55 -4 73 -1 98 14 l31 19 -26 0 c-14 0 -28 -2 -30 -4z m-6 -23 c-7 -2
-19 -2 -25 0 -7 3 -2 5 12 5 14 0 19 -2 13 -5z"/>
<path d="M1960 4791 c-14 -4 -39 -15 -56 -24 -47 -24 -136 -127 -110 -127 2 0
19 14 37 31 67 62 112 81 194 80 79 -1 135 -20 183 -65 34 -30 62 -90 62 -131
0 -28 4 -35 20 -35 29 0 27 61 -5 127 -26 57 -85 107 -153 131 -48 17 -140 24
-172 13z"/>
<path d="M3628 4761 c-59 -23 -103 -54 -150 -105 -49 -54 -95 -143 -80 -158 7
-7 15 0 27 23 57 112 198 212 299 212 78 0 132 -35 170 -110 9 -18 21 -33 26
-33 16 0 11 38 -10 79 -50 99 -167 137 -282 92z"/>
<path d="M4842 4565 c2 -1 13 -8 26 -14 17 -9 22 -9 22 1 0 7 -12 14 -26 14
-14 1 -24 1 -22 -1z"/>
<path d="M1662 4552 c-7 -5 23 -9 66 -9 57 0 92 -6 128 -22 44 -19 47 -19 25
-2 -14 10 -41 24 -62 30 -42 13 -138 14 -157 3z"/>
<path d="M1957 4512 c36 -35 57 -44 28 -12 -27 29 -9 24 41 -12 24 -17 46 -29
49 -26 10 10 -64 59 -95 63 -16 2 -35 7 -42 11 -7 4 2 -7 19 -24z"/>
<path d="M2810 4407 c0 -22 39 -57 65 -57 28 0 68 35 62 53 -6 18 -127 22
-127 4z"/>
<path d="M2380 4254 c0 -4 14 -22 31 -42 17 -19 36 -48 41 -64 7 -20 14 -26
20 -20 7 7 7 21 0 41 -13 36 -13 36 35 16 54 -23 155 -19 247 10 80 25 143 54
118 55 -7 0 -23 -6 -35 -14 -30 -20 -187 -40 -263 -33 -36 2 -86 15 -119 31
-58 26 -75 31 -75 20z"/>
<path d="M2922 4222 c18 -16 60 -46 93 -67 55 -35 66 -38 145 -41 l85 -3 -75
8 c-74 7 -138 30 -161 57 -6 8 -17 14 -23 14 -6 1 -27 14 -46 30 -19 17 -38
30 -42 30 -5 0 6 -13 24 -28z"/>
<path d="M6226 1434 c-9 -8 -20 -13 -25 -10 -16 10 -41 -5 -41 -24 0 -21 23
-32 47 -23 13 5 15 2 11 -15 -4 -12 -2 -25 3 -28 6 -3 5 -11 -2 -20 -17 -20
32 -36 95 -30 28 2 59 5 69 5 10 1 17 9 17 21 0 16 -7 20 -32 20 -40 0 -85 45
-67 67 7 7 10 15 8 16 -17 13 -59 37 -63 37 -2 0 -12 -7 -20 -16z"/>
<path d="M6071 1386 c-7 -8 -24 -16 -38 -18 -47 -5 -38 -26 11 -26 25 0 50 -3
55 -6 10 -7 41 20 41 35 0 5 -8 9 -18 9 -10 0 -23 5 -28 10 -8 8 -15 6 -23 -4z"/>
<path d="M5810 1363 c0 -28 128 -49 153 -24 6 6 9 12 6 15 -9 8 -159 17 -159
9z"/>
<path d="M6155 1340 c4 -6 11 -8 16 -5 14 9 11 15 -7 15 -8 0 -12 -5 -9 -10z"/>
<path d="M5990 1280 c11 -7 5 -10 -22 -10 -21 0 -38 -4 -38 -10 0 -5 20 -10
45 -10 43 0 45 1 35 20 -6 11 -16 20 -23 20 -7 0 -6 -4 3 -10z"/>
<path d="M5840 1260 c0 -12 45 -24 65 -16 29 11 15 26 -25 26 -22 0 -40 -4
-40 -10z"/>
<path d="M5014 335 c25 -19 36 -19 36 0 0 10 -10 15 -27 15 -27 -1 -27 -1 -9
-15z"/>
<path d="M5020 271 c0 -6 5 -13 10 -16 6 -3 10 1 10 9 0 9 -4 16 -10 16 -5 0
-10 -4 -10 -9z"/>
<path d="M4820 179 c0 -5 5 -7 10 -4 6 3 10 8 10 11 0 2 -4 4 -10 4 -5 0 -10
-5 -10 -11z"/>
</g>
</svg>
